%TF.GenerationSoftware,KiCad,Pcbnew,(5.1.10)-1*%
%TF.CreationDate,2021-08-02T08:48:12-04:00*%
%TF.ProjectId,lora-testing-board,6c6f7261-2d74-4657-9374-696e672d626f,rev?*%
%TF.SameCoordinates,Original*%
%TF.FileFunction,Copper,L1,Top*%
%TF.FilePolarity,Positive*%
%FSLAX46Y46*%
G04 Gerber Fmt 4.6, Leading zero omitted, Abs format (unit mm)*
G04 Created by KiCad (PCBNEW (5.1.10)-1) date 2021-08-02 08:48:12*
%MOMM*%
%LPD*%
G01*
G04 APERTURE LIST*
%TA.AperFunction,Profile*%
%ADD10C,0.050000*%
%TD*%
%TA.AperFunction,ComponentPad*%
%ADD11R,1.700000X1.700000*%
%TD*%
%TA.AperFunction,ComponentPad*%
%ADD12O,1.700000X1.700000*%
%TD*%
%TA.AperFunction,SMDPad,CuDef*%
%ADD13R,1.050000X1.050000*%
%TD*%
%TA.AperFunction,SMDPad,CuDef*%
%ADD14R,2.200000X1.050000*%
%TD*%
%TA.AperFunction,SMDPad,CuDef*%
%ADD15R,2.000000X1.000000*%
%TD*%
%TA.AperFunction,Conductor*%
%ADD16C,0.500000*%
%TD*%
%TA.AperFunction,Conductor*%
%ADD17C,0.300000*%
%TD*%
%TA.AperFunction,Conductor*%
%ADD18C,0.254000*%
%TD*%
%TA.AperFunction,Conductor*%
%ADD19C,0.100000*%
%TD*%
G04 APERTURE END LIST*
D10*
X137000000Y-118000000D02*
G75*
G02*
X128000000Y-127000000I-9000000J0D01*
G01*
X77000000Y-127000000D02*
G75*
G02*
X68000000Y-118000000I0J9000000D01*
G01*
X128000000Y-77000000D02*
G75*
G02*
X137000000Y-86000000I0J-9000000D01*
G01*
X68000000Y-86000000D02*
G75*
G02*
X77000000Y-77000000I9000000J0D01*
G01*
X128000000Y-77000000D02*
X77000000Y-77000000D01*
X137000000Y-118000000D02*
X137000000Y-86000000D01*
X77000000Y-127000000D02*
X128000000Y-127000000D01*
X68000000Y-86000000D02*
X68000000Y-118000000D01*
%TO.P,C1,1*%
%TO.N,Net-(C1-Pad1)*%
%TA.AperFunction,SMDPad,CuDef*%
G36*
G01*
X92235000Y-88400000D02*
X93185000Y-88400000D01*
G75*
G02*
X93435000Y-88650000I0J-250000D01*
G01*
X93435000Y-89150000D01*
G75*
G02*
X93185000Y-89400000I-250000J0D01*
G01*
X92235000Y-89400000D01*
G75*
G02*
X91985000Y-89150000I0J250000D01*
G01*
X91985000Y-88650000D01*
G75*
G02*
X92235000Y-88400000I250000J0D01*
G01*
G37*
%TD.AperFunction*%
%TO.P,C1,2*%
%TO.N,GND1*%
%TA.AperFunction,SMDPad,CuDef*%
G36*
G01*
X92235000Y-90300000D02*
X93185000Y-90300000D01*
G75*
G02*
X93435000Y-90550000I0J-250000D01*
G01*
X93435000Y-91050000D01*
G75*
G02*
X93185000Y-91300000I-250000J0D01*
G01*
X92235000Y-91300000D01*
G75*
G02*
X91985000Y-91050000I0J250000D01*
G01*
X91985000Y-90550000D01*
G75*
G02*
X92235000Y-90300000I250000J0D01*
G01*
G37*
%TD.AperFunction*%
%TD*%
D11*
%TO.P,J1,1*%
%TO.N,GND1*%
X88900000Y-91440000D03*
D12*
%TO.P,J1,2*%
%TO.N,Net-(C1-Pad1)*%
X88900000Y-88900000D03*
%TD*%
D11*
%TO.P,J2,1*%
%TO.N,GND1*%
X88900000Y-110490000D03*
D12*
%TO.P,J2,2*%
%TO.N,Net-(J2-Pad2)*%
X88900000Y-107950000D03*
%TO.P,J2,3*%
%TO.N,Net-(J2-Pad3)*%
X88900000Y-105410000D03*
%TO.P,J2,4*%
%TO.N,Net-(J2-Pad4)*%
X88900000Y-102870000D03*
%TO.P,J2,5*%
%TO.N,Net-(J2-Pad5)*%
X88900000Y-100330000D03*
%TO.P,J2,6*%
%TO.N,Net-(J2-Pad6)*%
X88900000Y-97790000D03*
%TD*%
D13*
%TO.P,J3,3*%
%TO.N,Net-(J3-Pad3)*%
X113588800Y-109880400D03*
D14*
%TO.P,J3,2*%
%TO.N,GND1*%
X115113800Y-108405400D03*
%TO.P,J3,1*%
X115113800Y-111355400D03*
%TD*%
D11*
%TO.P,J4,1*%
%TO.N,GND1*%
X120650000Y-110490000D03*
D12*
%TO.P,J4,2*%
%TO.N,Net-(J4-Pad2)*%
X120650000Y-107950000D03*
%TO.P,J4,3*%
%TO.N,Net-(J4-Pad3)*%
X120650000Y-105410000D03*
%TO.P,J4,4*%
%TO.N,Net-(J4-Pad4)*%
X120650000Y-102870000D03*
%TO.P,J4,5*%
%TO.N,Net-(J4-Pad5)*%
X120650000Y-100330000D03*
%TO.P,J4,6*%
%TO.N,Net-(J4-Pad6)*%
X120650000Y-97790000D03*
%TO.P,J4,7*%
%TO.N,Net-(J4-Pad7)*%
X120650000Y-95250000D03*
%TD*%
D15*
%TO.P,U1,1*%
%TO.N,GND1*%
X94870000Y-95870000D03*
%TO.P,U1,2*%
%TO.N,Net-(J2-Pad6)*%
X94870000Y-97870000D03*
%TO.P,U1,3*%
%TO.N,Net-(J2-Pad5)*%
X94870000Y-99870000D03*
%TO.P,U1,4*%
%TO.N,Net-(J2-Pad4)*%
X94870000Y-101870000D03*
%TO.P,U1,5*%
%TO.N,Net-(J2-Pad3)*%
X94870000Y-103870000D03*
%TO.P,U1,6*%
%TO.N,Net-(J2-Pad2)*%
X94870000Y-105870000D03*
%TO.P,U1,7*%
%TO.N,Net-(J4-Pad7)*%
X94870000Y-107870000D03*
%TO.P,U1,8*%
%TO.N,GND1*%
X94870000Y-109870000D03*
%TO.P,U1,9*%
%TO.N,Net-(J3-Pad3)*%
X110870000Y-109870000D03*
%TO.P,U1,10*%
%TO.N,GND1*%
X110870000Y-107870000D03*
%TO.P,U1,11*%
%TO.N,Net-(J4-Pad5)*%
X110870000Y-105870000D03*
%TO.P,U1,12*%
%TO.N,Net-(J4-Pad6)*%
X110870000Y-103870000D03*
%TO.P,U1,13*%
%TO.N,Net-(C1-Pad1)*%
X110870000Y-101870000D03*
%TO.P,U1,14*%
%TO.N,Net-(J4-Pad2)*%
X110870000Y-99870000D03*
%TO.P,U1,15*%
%TO.N,Net-(J4-Pad3)*%
X110870000Y-97870000D03*
%TO.P,U1,16*%
%TO.N,Net-(J4-Pad4)*%
X110870000Y-95870000D03*
%TD*%
D16*
%TO.N,Net-(C1-Pad1)*%
X88900000Y-88900000D02*
X92710000Y-88900000D01*
X92710000Y-88900000D02*
X104648000Y-88900000D01*
X104648000Y-88900000D02*
X105918000Y-90170000D01*
X105918000Y-90170000D02*
X105918000Y-100584000D01*
X107204000Y-101870000D02*
X110870000Y-101870000D01*
X105918000Y-100584000D02*
X107204000Y-101870000D01*
%TO.N,GND1*%
X88900000Y-91440000D02*
X89916000Y-91440000D01*
X90556000Y-90800000D02*
X92710000Y-90800000D01*
X89916000Y-91440000D02*
X90556000Y-90800000D01*
X94870000Y-95870000D02*
X97678000Y-95870000D01*
X97678000Y-95870000D02*
X98552000Y-94996000D01*
X98552000Y-94996000D02*
X98552000Y-91694000D01*
X97658000Y-90800000D02*
X96134000Y-90800000D01*
X96134000Y-90800000D02*
X96642000Y-90800000D01*
X98552000Y-91694000D02*
X97658000Y-90800000D01*
X92710000Y-90800000D02*
X96134000Y-90800000D01*
X88900000Y-110490000D02*
X92456000Y-110490000D01*
X93076000Y-109870000D02*
X94870000Y-109870000D01*
X92456000Y-110490000D02*
X93076000Y-109870000D01*
%TO.N,Net-(J2-Pad2)*%
X88900000Y-107950000D02*
X90932000Y-107950000D01*
X90932000Y-107950000D02*
X91440000Y-107442000D01*
X91440000Y-107442000D02*
X91440000Y-106172000D01*
X91742000Y-105870000D02*
X94870000Y-105870000D01*
X91440000Y-106172000D02*
X91742000Y-105870000D01*
%TO.N,Net-(J2-Pad3)*%
X88900000Y-105410000D02*
X90678000Y-105410000D01*
X90678000Y-105410000D02*
X91186000Y-104902000D01*
X91186000Y-104902000D02*
X91186000Y-104140000D01*
X91456000Y-103870000D02*
X94870000Y-103870000D01*
X91186000Y-104140000D02*
X91456000Y-103870000D01*
%TO.N,Net-(J2-Pad4)*%
X88900000Y-102870000D02*
X90170000Y-102870000D01*
X90170000Y-102870000D02*
X90424000Y-102616000D01*
X90424000Y-102616000D02*
X90424000Y-102108000D01*
X90662000Y-101870000D02*
X94870000Y-101870000D01*
X90424000Y-102108000D02*
X90662000Y-101870000D01*
D17*
%TO.N,Net-(J2-Pad5)*%
X88900000Y-100330000D02*
X90170000Y-100330000D01*
X90630000Y-99870000D02*
X94870000Y-99870000D01*
X90170000Y-100330000D02*
X90630000Y-99870000D01*
D16*
%TO.N,Net-(J3-Pad3)*%
X113578400Y-109870000D02*
X113588800Y-109880400D01*
X110870000Y-109870000D02*
X113578400Y-109870000D01*
D17*
%TO.N,Net-(J4-Pad2)*%
X110870000Y-99870000D02*
X114094000Y-99870000D01*
X114094000Y-99870000D02*
X114554000Y-100330000D01*
X114554000Y-100330000D02*
X114554000Y-105918000D01*
X114554000Y-105918000D02*
X115062000Y-106426000D01*
X115062000Y-106426000D02*
X116840000Y-106426000D01*
X116840000Y-106426000D02*
X117094000Y-106680000D01*
X117094000Y-106680000D02*
X117094000Y-107696000D01*
X117348000Y-107950000D02*
X120650000Y-107950000D01*
X117094000Y-107696000D02*
X117348000Y-107950000D01*
%TO.N,Net-(J4-Pad3)*%
X110870000Y-97870000D02*
X115650000Y-97870000D01*
X115650000Y-97870000D02*
X116332000Y-98552000D01*
X116332000Y-98552000D02*
X116332000Y-104648000D01*
X117094000Y-105410000D02*
X120650000Y-105410000D01*
X116332000Y-104648000D02*
X117094000Y-105410000D01*
%TO.N,Net-(J4-Pad4)*%
X110870000Y-95870000D02*
X117460000Y-95870000D01*
X117460000Y-95870000D02*
X118110000Y-96520000D01*
X118110000Y-96520000D02*
X118110000Y-102362000D01*
X118618000Y-102870000D02*
X120650000Y-102870000D01*
X118110000Y-102362000D02*
X118618000Y-102870000D01*
%TO.N,Net-(J4-Pad5)*%
X110870000Y-105870000D02*
X109014000Y-105870000D01*
X109014000Y-105870000D02*
X108458000Y-106426000D01*
X108458000Y-106426000D02*
X108458000Y-111760000D01*
X108458000Y-111760000D02*
X109220000Y-112522000D01*
X109220000Y-112522000D02*
X122682000Y-112522000D01*
X122682000Y-112522000D02*
X123444000Y-111760000D01*
X123444000Y-111760000D02*
X123444000Y-101092000D01*
X122682000Y-100330000D02*
X120650000Y-100330000D01*
X123444000Y-101092000D02*
X122682000Y-100330000D01*
%TO.N,Net-(J4-Pad6)*%
X110870000Y-103870000D02*
X108728000Y-103870000D01*
X108728000Y-103870000D02*
X108712000Y-103886000D01*
X108712000Y-103886000D02*
X108204000Y-103886000D01*
X108204000Y-103886000D02*
X107442000Y-104648000D01*
X107442000Y-104648000D02*
X107442000Y-112014000D01*
X107442000Y-112014000D02*
X108712000Y-113284000D01*
X108712000Y-113284000D02*
X123444000Y-113284000D01*
X123444000Y-113284000D02*
X124206000Y-112522000D01*
X124206000Y-112522000D02*
X124206000Y-98298000D01*
X123698000Y-97790000D02*
X120650000Y-97790000D01*
X124206000Y-98298000D02*
X123698000Y-97790000D01*
D16*
%TO.N,Net-(J2-Pad6)*%
X94790000Y-97790000D02*
X94870000Y-97870000D01*
D17*
X88900000Y-97790000D02*
X94790000Y-97790000D01*
%TO.N,Net-(J4-Pad7)*%
X125222000Y-96012000D02*
X124460000Y-95250000D01*
X125222000Y-113284000D02*
X125222000Y-96012000D01*
X124460000Y-114046000D02*
X125222000Y-113284000D01*
X107442000Y-114046000D02*
X124460000Y-114046000D01*
X124460000Y-95250000D02*
X120650000Y-95250000D01*
X106426000Y-108458000D02*
X106426000Y-113030000D01*
X106426000Y-113030000D02*
X107442000Y-114046000D01*
X105838000Y-107870000D02*
X106426000Y-108458000D01*
X94870000Y-107870000D02*
X105838000Y-107870000D01*
%TD*%
D18*
%TO.N,GND1*%
X114623767Y-107081862D02*
X114760140Y-107154754D01*
X114873672Y-107189194D01*
X114908112Y-107199641D01*
X114922490Y-107201057D01*
X115023439Y-107211000D01*
X115023446Y-107211000D01*
X115061999Y-107214797D01*
X115100552Y-107211000D01*
X116309001Y-107211000D01*
X116309001Y-107251704D01*
X116213800Y-107242328D01*
X115399550Y-107245400D01*
X115240800Y-107404150D01*
X115240800Y-108278400D01*
X115260800Y-108278400D01*
X115260800Y-108532400D01*
X115240800Y-108532400D01*
X115240800Y-109406650D01*
X115399550Y-109565400D01*
X116213800Y-109568472D01*
X116338282Y-109556212D01*
X116457980Y-109519902D01*
X116568294Y-109460937D01*
X116664985Y-109381585D01*
X116744337Y-109284894D01*
X116803302Y-109174580D01*
X116839612Y-109054882D01*
X116851872Y-108930400D01*
X116848800Y-108691150D01*
X116690052Y-108532402D01*
X116820257Y-108532402D01*
X116909767Y-108605862D01*
X117046140Y-108678754D01*
X117166175Y-108715166D01*
X117194112Y-108723641D01*
X117202773Y-108724494D01*
X117309439Y-108735000D01*
X117309446Y-108735000D01*
X117347999Y-108738797D01*
X117386552Y-108735000D01*
X119388526Y-108735000D01*
X119496525Y-108896632D01*
X119628380Y-109028487D01*
X119555820Y-109050498D01*
X119445506Y-109109463D01*
X119348815Y-109188815D01*
X119269463Y-109285506D01*
X119210498Y-109395820D01*
X119174188Y-109515518D01*
X119161928Y-109640000D01*
X119165000Y-110204250D01*
X119323750Y-110363000D01*
X120523000Y-110363000D01*
X120523000Y-110343000D01*
X120777000Y-110343000D01*
X120777000Y-110363000D01*
X121976250Y-110363000D01*
X122135000Y-110204250D01*
X122138072Y-109640000D01*
X122125812Y-109515518D01*
X122089502Y-109395820D01*
X122030537Y-109285506D01*
X121951185Y-109188815D01*
X121854494Y-109109463D01*
X121744180Y-109050498D01*
X121671620Y-109028487D01*
X121803475Y-108896632D01*
X121965990Y-108653411D01*
X122077932Y-108383158D01*
X122135000Y-108096260D01*
X122135000Y-107803740D01*
X122077932Y-107516842D01*
X121965990Y-107246589D01*
X121841983Y-107061000D01*
X122659000Y-107061000D01*
X122659000Y-111434843D01*
X122356843Y-111737000D01*
X121995653Y-111737000D01*
X122030537Y-111694494D01*
X122089502Y-111584180D01*
X122125812Y-111464482D01*
X122138072Y-111340000D01*
X122135000Y-110775750D01*
X121976250Y-110617000D01*
X120777000Y-110617000D01*
X120777000Y-110637000D01*
X120523000Y-110637000D01*
X120523000Y-110617000D01*
X119323750Y-110617000D01*
X119165000Y-110775750D01*
X119161928Y-111340000D01*
X119174188Y-111464482D01*
X119210498Y-111584180D01*
X119269463Y-111694494D01*
X119304347Y-111737000D01*
X116850031Y-111737000D01*
X116848800Y-111641150D01*
X116690050Y-111482400D01*
X115240800Y-111482400D01*
X115240800Y-111502400D01*
X114986800Y-111502400D01*
X114986800Y-111482400D01*
X113537550Y-111482400D01*
X113378800Y-111641150D01*
X113377569Y-111737000D01*
X109545157Y-111737000D01*
X109243000Y-111434843D01*
X109243000Y-110482420D01*
X109244188Y-110494482D01*
X109280498Y-110614180D01*
X109339463Y-110724494D01*
X109418815Y-110821185D01*
X109515506Y-110900537D01*
X109625820Y-110959502D01*
X109745518Y-110995812D01*
X109870000Y-111008072D01*
X111870000Y-111008072D01*
X111994482Y-110995812D01*
X112114180Y-110959502D01*
X112224494Y-110900537D01*
X112321185Y-110821185D01*
X112375501Y-110755000D01*
X112530647Y-110755000D01*
X112533263Y-110759894D01*
X112612615Y-110856585D01*
X112709306Y-110935937D01*
X112819620Y-110994902D01*
X112939318Y-111031212D01*
X113063800Y-111043472D01*
X113378464Y-111043472D01*
X113378800Y-111069650D01*
X113537550Y-111228400D01*
X114986800Y-111228400D01*
X114986800Y-110354150D01*
X115240800Y-110354150D01*
X115240800Y-111228400D01*
X116690050Y-111228400D01*
X116848800Y-111069650D01*
X116851872Y-110830400D01*
X116839612Y-110705918D01*
X116803302Y-110586220D01*
X116744337Y-110475906D01*
X116664985Y-110379215D01*
X116568294Y-110299863D01*
X116457980Y-110240898D01*
X116338282Y-110204588D01*
X116213800Y-110192328D01*
X115399550Y-110195400D01*
X115240800Y-110354150D01*
X114986800Y-110354150D01*
X114828050Y-110195400D01*
X114751872Y-110195113D01*
X114751872Y-109565687D01*
X114828050Y-109565400D01*
X114986800Y-109406650D01*
X114986800Y-108532400D01*
X113537550Y-108532400D01*
X113378800Y-108691150D01*
X113378464Y-108717328D01*
X113063800Y-108717328D01*
X112939318Y-108729588D01*
X112819620Y-108765898D01*
X112709306Y-108824863D01*
X112612615Y-108904215D01*
X112546317Y-108985000D01*
X112375501Y-108985000D01*
X112321185Y-108918815D01*
X112261704Y-108870000D01*
X112321185Y-108821185D01*
X112400537Y-108724494D01*
X112459502Y-108614180D01*
X112495812Y-108494482D01*
X112508072Y-108370000D01*
X112505000Y-108155750D01*
X112346250Y-107997000D01*
X110997000Y-107997000D01*
X110997000Y-108017000D01*
X110743000Y-108017000D01*
X110743000Y-107997000D01*
X110723000Y-107997000D01*
X110723000Y-107880400D01*
X113375728Y-107880400D01*
X113378800Y-108119650D01*
X113537550Y-108278400D01*
X114986800Y-108278400D01*
X114986800Y-107404150D01*
X114828050Y-107245400D01*
X114013800Y-107242328D01*
X113889318Y-107254588D01*
X113769620Y-107290898D01*
X113659306Y-107349863D01*
X113562615Y-107429215D01*
X113483263Y-107525906D01*
X113424298Y-107636220D01*
X113387988Y-107755918D01*
X113375728Y-107880400D01*
X110723000Y-107880400D01*
X110723000Y-107743000D01*
X110743000Y-107743000D01*
X110743000Y-107723000D01*
X110997000Y-107723000D01*
X110997000Y-107743000D01*
X112346250Y-107743000D01*
X112505000Y-107584250D01*
X112508072Y-107370000D01*
X112495812Y-107245518D01*
X112459502Y-107125820D01*
X112424854Y-107061000D01*
X114598347Y-107061000D01*
X114623767Y-107081862D01*
%TA.AperFunction,Conductor*%
D19*
G36*
X114623767Y-107081862D02*
G01*
X114760140Y-107154754D01*
X114873672Y-107189194D01*
X114908112Y-107199641D01*
X114922490Y-107201057D01*
X115023439Y-107211000D01*
X115023446Y-107211000D01*
X115061999Y-107214797D01*
X115100552Y-107211000D01*
X116309001Y-107211000D01*
X116309001Y-107251704D01*
X116213800Y-107242328D01*
X115399550Y-107245400D01*
X115240800Y-107404150D01*
X115240800Y-108278400D01*
X115260800Y-108278400D01*
X115260800Y-108532400D01*
X115240800Y-108532400D01*
X115240800Y-109406650D01*
X115399550Y-109565400D01*
X116213800Y-109568472D01*
X116338282Y-109556212D01*
X116457980Y-109519902D01*
X116568294Y-109460937D01*
X116664985Y-109381585D01*
X116744337Y-109284894D01*
X116803302Y-109174580D01*
X116839612Y-109054882D01*
X116851872Y-108930400D01*
X116848800Y-108691150D01*
X116690052Y-108532402D01*
X116820257Y-108532402D01*
X116909767Y-108605862D01*
X117046140Y-108678754D01*
X117166175Y-108715166D01*
X117194112Y-108723641D01*
X117202773Y-108724494D01*
X117309439Y-108735000D01*
X117309446Y-108735000D01*
X117347999Y-108738797D01*
X117386552Y-108735000D01*
X119388526Y-108735000D01*
X119496525Y-108896632D01*
X119628380Y-109028487D01*
X119555820Y-109050498D01*
X119445506Y-109109463D01*
X119348815Y-109188815D01*
X119269463Y-109285506D01*
X119210498Y-109395820D01*
X119174188Y-109515518D01*
X119161928Y-109640000D01*
X119165000Y-110204250D01*
X119323750Y-110363000D01*
X120523000Y-110363000D01*
X120523000Y-110343000D01*
X120777000Y-110343000D01*
X120777000Y-110363000D01*
X121976250Y-110363000D01*
X122135000Y-110204250D01*
X122138072Y-109640000D01*
X122125812Y-109515518D01*
X122089502Y-109395820D01*
X122030537Y-109285506D01*
X121951185Y-109188815D01*
X121854494Y-109109463D01*
X121744180Y-109050498D01*
X121671620Y-109028487D01*
X121803475Y-108896632D01*
X121965990Y-108653411D01*
X122077932Y-108383158D01*
X122135000Y-108096260D01*
X122135000Y-107803740D01*
X122077932Y-107516842D01*
X121965990Y-107246589D01*
X121841983Y-107061000D01*
X122659000Y-107061000D01*
X122659000Y-111434843D01*
X122356843Y-111737000D01*
X121995653Y-111737000D01*
X122030537Y-111694494D01*
X122089502Y-111584180D01*
X122125812Y-111464482D01*
X122138072Y-111340000D01*
X122135000Y-110775750D01*
X121976250Y-110617000D01*
X120777000Y-110617000D01*
X120777000Y-110637000D01*
X120523000Y-110637000D01*
X120523000Y-110617000D01*
X119323750Y-110617000D01*
X119165000Y-110775750D01*
X119161928Y-111340000D01*
X119174188Y-111464482D01*
X119210498Y-111584180D01*
X119269463Y-111694494D01*
X119304347Y-111737000D01*
X116850031Y-111737000D01*
X116848800Y-111641150D01*
X116690050Y-111482400D01*
X115240800Y-111482400D01*
X115240800Y-111502400D01*
X114986800Y-111502400D01*
X114986800Y-111482400D01*
X113537550Y-111482400D01*
X113378800Y-111641150D01*
X113377569Y-111737000D01*
X109545157Y-111737000D01*
X109243000Y-111434843D01*
X109243000Y-110482420D01*
X109244188Y-110494482D01*
X109280498Y-110614180D01*
X109339463Y-110724494D01*
X109418815Y-110821185D01*
X109515506Y-110900537D01*
X109625820Y-110959502D01*
X109745518Y-110995812D01*
X109870000Y-111008072D01*
X111870000Y-111008072D01*
X111994482Y-110995812D01*
X112114180Y-110959502D01*
X112224494Y-110900537D01*
X112321185Y-110821185D01*
X112375501Y-110755000D01*
X112530647Y-110755000D01*
X112533263Y-110759894D01*
X112612615Y-110856585D01*
X112709306Y-110935937D01*
X112819620Y-110994902D01*
X112939318Y-111031212D01*
X113063800Y-111043472D01*
X113378464Y-111043472D01*
X113378800Y-111069650D01*
X113537550Y-111228400D01*
X114986800Y-111228400D01*
X114986800Y-110354150D01*
X115240800Y-110354150D01*
X115240800Y-111228400D01*
X116690050Y-111228400D01*
X116848800Y-111069650D01*
X116851872Y-110830400D01*
X116839612Y-110705918D01*
X116803302Y-110586220D01*
X116744337Y-110475906D01*
X116664985Y-110379215D01*
X116568294Y-110299863D01*
X116457980Y-110240898D01*
X116338282Y-110204588D01*
X116213800Y-110192328D01*
X115399550Y-110195400D01*
X115240800Y-110354150D01*
X114986800Y-110354150D01*
X114828050Y-110195400D01*
X114751872Y-110195113D01*
X114751872Y-109565687D01*
X114828050Y-109565400D01*
X114986800Y-109406650D01*
X114986800Y-108532400D01*
X113537550Y-108532400D01*
X113378800Y-108691150D01*
X113378464Y-108717328D01*
X113063800Y-108717328D01*
X112939318Y-108729588D01*
X112819620Y-108765898D01*
X112709306Y-108824863D01*
X112612615Y-108904215D01*
X112546317Y-108985000D01*
X112375501Y-108985000D01*
X112321185Y-108918815D01*
X112261704Y-108870000D01*
X112321185Y-108821185D01*
X112400537Y-108724494D01*
X112459502Y-108614180D01*
X112495812Y-108494482D01*
X112508072Y-108370000D01*
X112505000Y-108155750D01*
X112346250Y-107997000D01*
X110997000Y-107997000D01*
X110997000Y-108017000D01*
X110743000Y-108017000D01*
X110743000Y-107997000D01*
X110723000Y-107997000D01*
X110723000Y-107880400D01*
X113375728Y-107880400D01*
X113378800Y-108119650D01*
X113537550Y-108278400D01*
X114986800Y-108278400D01*
X114986800Y-107404150D01*
X114828050Y-107245400D01*
X114013800Y-107242328D01*
X113889318Y-107254588D01*
X113769620Y-107290898D01*
X113659306Y-107349863D01*
X113562615Y-107429215D01*
X113483263Y-107525906D01*
X113424298Y-107636220D01*
X113387988Y-107755918D01*
X113375728Y-107880400D01*
X110723000Y-107880400D01*
X110723000Y-107743000D01*
X110743000Y-107743000D01*
X110743000Y-107723000D01*
X110997000Y-107723000D01*
X110997000Y-107743000D01*
X112346250Y-107743000D01*
X112505000Y-107584250D01*
X112508072Y-107370000D01*
X112495812Y-107245518D01*
X112459502Y-107125820D01*
X112424854Y-107061000D01*
X114598347Y-107061000D01*
X114623767Y-107081862D01*
G37*
%TD.AperFunction*%
%TD*%
M02*
