%TF.GenerationSoftware,KiCad,Pcbnew,(5.1.10)-1*%
%TF.CreationDate,2021-08-02T08:48:12-04:00*%
%TF.ProjectId,lora-testing-board,6c6f7261-2d74-4657-9374-696e672d626f,rev?*%
%TF.SameCoordinates,Original*%
%TF.FileFunction,Legend,Top*%
%TF.FilePolarity,Positive*%
%FSLAX46Y46*%
G04 Gerber Fmt 4.6, Leading zero omitted, Abs format (unit mm)*
G04 Created by KiCad (PCBNEW (5.1.10)-1) date 2021-08-02 08:48:12*
%MOMM*%
%LPD*%
G01*
G04 APERTURE LIST*
%TA.AperFunction,Profile*%
%ADD10C,0.050000*%
%TD*%
%ADD11C,0.300000*%
%ADD12C,0.120000*%
%ADD13C,0.254000*%
%ADD14C,0.150000*%
G04 APERTURE END LIST*
D10*
X137000000Y-118000000D02*
G75*
G02*
X128000000Y-127000000I-9000000J0D01*
G01*
X77000000Y-127000000D02*
G75*
G02*
X68000000Y-118000000I0J9000000D01*
G01*
X128000000Y-77000000D02*
G75*
G02*
X137000000Y-86000000I0J-9000000D01*
G01*
X68000000Y-86000000D02*
G75*
G02*
X77000000Y-77000000I9000000J0D01*
G01*
D11*
X82673428Y-82237971D02*
X81959142Y-82237971D01*
X81959142Y-80737971D01*
X83387714Y-82237971D02*
X83244857Y-82166542D01*
X83173428Y-82095114D01*
X83102000Y-81952257D01*
X83102000Y-81523685D01*
X83173428Y-81380828D01*
X83244857Y-81309400D01*
X83387714Y-81237971D01*
X83602000Y-81237971D01*
X83744857Y-81309400D01*
X83816285Y-81380828D01*
X83887714Y-81523685D01*
X83887714Y-81952257D01*
X83816285Y-82095114D01*
X83744857Y-82166542D01*
X83602000Y-82237971D01*
X83387714Y-82237971D01*
X85387714Y-82237971D02*
X84887714Y-81523685D01*
X84530571Y-82237971D02*
X84530571Y-80737971D01*
X85102000Y-80737971D01*
X85244857Y-80809400D01*
X85316285Y-80880828D01*
X85387714Y-81023685D01*
X85387714Y-81237971D01*
X85316285Y-81380828D01*
X85244857Y-81452257D01*
X85102000Y-81523685D01*
X84530571Y-81523685D01*
X86673428Y-82237971D02*
X86673428Y-81452257D01*
X86602000Y-81309400D01*
X86459142Y-81237971D01*
X86173428Y-81237971D01*
X86030571Y-81309400D01*
X86673428Y-82166542D02*
X86530571Y-82237971D01*
X86173428Y-82237971D01*
X86030571Y-82166542D01*
X85959142Y-82023685D01*
X85959142Y-81880828D01*
X86030571Y-81737971D01*
X86173428Y-81666542D01*
X86530571Y-81666542D01*
X86673428Y-81595114D01*
X88316285Y-80737971D02*
X89173428Y-80737971D01*
X88744857Y-82237971D02*
X88744857Y-80737971D01*
X90244857Y-82166542D02*
X90102000Y-82237971D01*
X89816285Y-82237971D01*
X89673428Y-82166542D01*
X89602000Y-82023685D01*
X89602000Y-81452257D01*
X89673428Y-81309400D01*
X89816285Y-81237971D01*
X90102000Y-81237971D01*
X90244857Y-81309400D01*
X90316285Y-81452257D01*
X90316285Y-81595114D01*
X89602000Y-81737971D01*
X90887714Y-82166542D02*
X91030571Y-82237971D01*
X91316285Y-82237971D01*
X91459142Y-82166542D01*
X91530571Y-82023685D01*
X91530571Y-81952257D01*
X91459142Y-81809400D01*
X91316285Y-81737971D01*
X91102000Y-81737971D01*
X90959142Y-81666542D01*
X90887714Y-81523685D01*
X90887714Y-81452257D01*
X90959142Y-81309400D01*
X91102000Y-81237971D01*
X91316285Y-81237971D01*
X91459142Y-81309400D01*
X91959142Y-81237971D02*
X92530571Y-81237971D01*
X92173428Y-80737971D02*
X92173428Y-82023685D01*
X92244857Y-82166542D01*
X92387714Y-82237971D01*
X92530571Y-82237971D01*
X93030571Y-82237971D02*
X93030571Y-81237971D01*
X93030571Y-80737971D02*
X92959142Y-80809400D01*
X93030571Y-80880828D01*
X93102000Y-80809400D01*
X93030571Y-80737971D01*
X93030571Y-80880828D01*
X93744857Y-81237971D02*
X93744857Y-82237971D01*
X93744857Y-81380828D02*
X93816285Y-81309400D01*
X93959142Y-81237971D01*
X94173428Y-81237971D01*
X94316285Y-81309400D01*
X94387714Y-81452257D01*
X94387714Y-82237971D01*
X95744857Y-81237971D02*
X95744857Y-82452257D01*
X95673428Y-82595114D01*
X95602000Y-82666542D01*
X95459142Y-82737971D01*
X95244857Y-82737971D01*
X95102000Y-82666542D01*
X95744857Y-82166542D02*
X95602000Y-82237971D01*
X95316285Y-82237971D01*
X95173428Y-82166542D01*
X95102000Y-82095114D01*
X95030571Y-81952257D01*
X95030571Y-81523685D01*
X95102000Y-81380828D01*
X95173428Y-81309400D01*
X95316285Y-81237971D01*
X95602000Y-81237971D01*
X95744857Y-81309400D01*
X98102000Y-81452257D02*
X98316285Y-81523685D01*
X98387714Y-81595114D01*
X98459142Y-81737971D01*
X98459142Y-81952257D01*
X98387714Y-82095114D01*
X98316285Y-82166542D01*
X98173428Y-82237971D01*
X97602000Y-82237971D01*
X97602000Y-80737971D01*
X98102000Y-80737971D01*
X98244857Y-80809400D01*
X98316285Y-80880828D01*
X98387714Y-81023685D01*
X98387714Y-81166542D01*
X98316285Y-81309400D01*
X98244857Y-81380828D01*
X98102000Y-81452257D01*
X97602000Y-81452257D01*
X99316285Y-82237971D02*
X99173428Y-82166542D01*
X99102000Y-82095114D01*
X99030571Y-81952257D01*
X99030571Y-81523685D01*
X99102000Y-81380828D01*
X99173428Y-81309400D01*
X99316285Y-81237971D01*
X99530571Y-81237971D01*
X99673428Y-81309400D01*
X99744857Y-81380828D01*
X99816285Y-81523685D01*
X99816285Y-81952257D01*
X99744857Y-82095114D01*
X99673428Y-82166542D01*
X99530571Y-82237971D01*
X99316285Y-82237971D01*
X101102000Y-82237971D02*
X101102000Y-81452257D01*
X101030571Y-81309400D01*
X100887714Y-81237971D01*
X100602000Y-81237971D01*
X100459142Y-81309400D01*
X101102000Y-82166542D02*
X100959142Y-82237971D01*
X100602000Y-82237971D01*
X100459142Y-82166542D01*
X100387714Y-82023685D01*
X100387714Y-81880828D01*
X100459142Y-81737971D01*
X100602000Y-81666542D01*
X100959142Y-81666542D01*
X101102000Y-81595114D01*
X101816285Y-82237971D02*
X101816285Y-81237971D01*
X101816285Y-81523685D02*
X101887714Y-81380828D01*
X101959142Y-81309400D01*
X102102000Y-81237971D01*
X102244857Y-81237971D01*
X103387714Y-82237971D02*
X103387714Y-80737971D01*
X103387714Y-82166542D02*
X103244857Y-82237971D01*
X102959142Y-82237971D01*
X102816285Y-82166542D01*
X102744857Y-82095114D01*
X102673428Y-81952257D01*
X102673428Y-81523685D01*
X102744857Y-81380828D01*
X102816285Y-81309400D01*
X102959142Y-81237971D01*
X103244857Y-81237971D01*
X103387714Y-81309400D01*
X105102000Y-81237971D02*
X105459142Y-82237971D01*
X105816285Y-81237971D01*
X107173428Y-82237971D02*
X106316285Y-82237971D01*
X106744857Y-82237971D02*
X106744857Y-80737971D01*
X106602000Y-80952257D01*
X106459142Y-81095114D01*
X106316285Y-81166542D01*
X107816285Y-82095114D02*
X107887714Y-82166542D01*
X107816285Y-82237971D01*
X107744857Y-82166542D01*
X107816285Y-82095114D01*
X107816285Y-82237971D01*
X108816285Y-80737971D02*
X108959142Y-80737971D01*
X109102000Y-80809400D01*
X109173428Y-80880828D01*
X109244857Y-81023685D01*
X109316285Y-81309400D01*
X109316285Y-81666542D01*
X109244857Y-81952257D01*
X109173428Y-82095114D01*
X109102000Y-82166542D01*
X108959142Y-82237971D01*
X108816285Y-82237971D01*
X108673428Y-82166542D01*
X108602000Y-82095114D01*
X108530571Y-81952257D01*
X108459142Y-81666542D01*
X108459142Y-81309400D01*
X108530571Y-81023685D01*
X108602000Y-80880828D01*
X108673428Y-80809400D01*
X108816285Y-80737971D01*
X82825828Y-84422371D02*
X82111542Y-84422371D01*
X82111542Y-82922371D01*
X83325828Y-84279514D02*
X83397257Y-84350942D01*
X83325828Y-84422371D01*
X83254400Y-84350942D01*
X83325828Y-84279514D01*
X83325828Y-84422371D01*
X83897257Y-82922371D02*
X84254400Y-84422371D01*
X84540114Y-83350942D01*
X84825828Y-84422371D01*
X85182971Y-82922371D01*
X85754400Y-84279514D02*
X85825828Y-84350942D01*
X85754400Y-84422371D01*
X85682971Y-84350942D01*
X85754400Y-84279514D01*
X85754400Y-84422371D01*
X94111542Y-84422371D02*
X93254400Y-84422371D01*
X93682971Y-84422371D02*
X93682971Y-82922371D01*
X93540114Y-83136657D01*
X93397257Y-83279514D01*
X93254400Y-83350942D01*
X94825828Y-84422371D02*
X95111542Y-84422371D01*
X95254400Y-84350942D01*
X95325828Y-84279514D01*
X95468685Y-84065228D01*
X95540114Y-83779514D01*
X95540114Y-83208085D01*
X95468685Y-83065228D01*
X95397257Y-82993800D01*
X95254400Y-82922371D01*
X94968685Y-82922371D01*
X94825828Y-82993800D01*
X94754400Y-83065228D01*
X94682971Y-83208085D01*
X94682971Y-83565228D01*
X94754400Y-83708085D01*
X94825828Y-83779514D01*
X94968685Y-83850942D01*
X95254400Y-83850942D01*
X95397257Y-83779514D01*
X95468685Y-83708085D01*
X95540114Y-83565228D01*
X96182971Y-83850942D02*
X97325828Y-83850942D01*
X98325828Y-82922371D02*
X98468685Y-82922371D01*
X98611542Y-82993800D01*
X98682971Y-83065228D01*
X98754400Y-83208085D01*
X98825828Y-83493800D01*
X98825828Y-83850942D01*
X98754400Y-84136657D01*
X98682971Y-84279514D01*
X98611542Y-84350942D01*
X98468685Y-84422371D01*
X98325828Y-84422371D01*
X98182971Y-84350942D01*
X98111542Y-84279514D01*
X98040114Y-84136657D01*
X97968685Y-83850942D01*
X97968685Y-83493800D01*
X98040114Y-83208085D01*
X98111542Y-83065228D01*
X98182971Y-82993800D01*
X98325828Y-82922371D01*
X99325828Y-82922371D02*
X100325828Y-82922371D01*
X99682971Y-84422371D01*
X100897257Y-83850942D02*
X102040114Y-83850942D01*
X102682971Y-83065228D02*
X102754400Y-82993800D01*
X102897257Y-82922371D01*
X103254400Y-82922371D01*
X103397257Y-82993800D01*
X103468685Y-83065228D01*
X103540114Y-83208085D01*
X103540114Y-83350942D01*
X103468685Y-83565228D01*
X102611542Y-84422371D01*
X103540114Y-84422371D01*
X104468685Y-82922371D02*
X104611542Y-82922371D01*
X104754400Y-82993800D01*
X104825828Y-83065228D01*
X104897257Y-83208085D01*
X104968685Y-83493800D01*
X104968685Y-83850942D01*
X104897257Y-84136657D01*
X104825828Y-84279514D01*
X104754400Y-84350942D01*
X104611542Y-84422371D01*
X104468685Y-84422371D01*
X104325828Y-84350942D01*
X104254400Y-84279514D01*
X104182971Y-84136657D01*
X104111542Y-83850942D01*
X104111542Y-83493800D01*
X104182971Y-83208085D01*
X104254400Y-83065228D01*
X104325828Y-82993800D01*
X104468685Y-82922371D01*
X105540114Y-83065228D02*
X105611542Y-82993800D01*
X105754400Y-82922371D01*
X106111542Y-82922371D01*
X106254400Y-82993800D01*
X106325828Y-83065228D01*
X106397257Y-83208085D01*
X106397257Y-83350942D01*
X106325828Y-83565228D01*
X105468685Y-84422371D01*
X106397257Y-84422371D01*
X107825828Y-84422371D02*
X106968685Y-84422371D01*
X107397257Y-84422371D02*
X107397257Y-82922371D01*
X107254400Y-83136657D01*
X107111542Y-83279514D01*
X106968685Y-83350942D01*
X82086142Y-80180571D02*
X82086142Y-78680571D01*
X82086142Y-79394857D02*
X82943285Y-79394857D01*
X82943285Y-80180571D02*
X82943285Y-78680571D01*
X84300428Y-80180571D02*
X84300428Y-79394857D01*
X84229000Y-79252000D01*
X84086142Y-79180571D01*
X83800428Y-79180571D01*
X83657571Y-79252000D01*
X84300428Y-80109142D02*
X84157571Y-80180571D01*
X83800428Y-80180571D01*
X83657571Y-80109142D01*
X83586142Y-79966285D01*
X83586142Y-79823428D01*
X83657571Y-79680571D01*
X83800428Y-79609142D01*
X84157571Y-79609142D01*
X84300428Y-79537714D01*
X85657571Y-80109142D02*
X85514714Y-80180571D01*
X85229000Y-80180571D01*
X85086142Y-80109142D01*
X85014714Y-80037714D01*
X84943285Y-79894857D01*
X84943285Y-79466285D01*
X85014714Y-79323428D01*
X85086142Y-79252000D01*
X85229000Y-79180571D01*
X85514714Y-79180571D01*
X85657571Y-79252000D01*
X86300428Y-80180571D02*
X86300428Y-78680571D01*
X86443285Y-79609142D02*
X86871857Y-80180571D01*
X86871857Y-79180571D02*
X86300428Y-79752000D01*
X88157571Y-80180571D02*
X88157571Y-79394857D01*
X88086142Y-79252000D01*
X87943285Y-79180571D01*
X87657571Y-79180571D01*
X87514714Y-79252000D01*
X88157571Y-80109142D02*
X88014714Y-80180571D01*
X87657571Y-80180571D01*
X87514714Y-80109142D01*
X87443285Y-79966285D01*
X87443285Y-79823428D01*
X87514714Y-79680571D01*
X87657571Y-79609142D01*
X88014714Y-79609142D01*
X88157571Y-79537714D01*
X89514714Y-80180571D02*
X89514714Y-78680571D01*
X89514714Y-80109142D02*
X89371857Y-80180571D01*
X89086142Y-80180571D01*
X88943285Y-80109142D01*
X88871857Y-80037714D01*
X88800428Y-79894857D01*
X88800428Y-79466285D01*
X88871857Y-79323428D01*
X88943285Y-79252000D01*
X89086142Y-79180571D01*
X89371857Y-79180571D01*
X89514714Y-79252000D01*
X90871857Y-80180571D02*
X90871857Y-79394857D01*
X90800428Y-79252000D01*
X90657571Y-79180571D01*
X90371857Y-79180571D01*
X90229000Y-79252000D01*
X90871857Y-80109142D02*
X90729000Y-80180571D01*
X90371857Y-80180571D01*
X90229000Y-80109142D01*
X90157571Y-79966285D01*
X90157571Y-79823428D01*
X90229000Y-79680571D01*
X90371857Y-79609142D01*
X90729000Y-79609142D01*
X90871857Y-79537714D01*
X91443285Y-79180571D02*
X91800428Y-80180571D01*
X92157571Y-79180571D02*
X91800428Y-80180571D01*
X91657571Y-80537714D01*
X91586142Y-80609142D01*
X91443285Y-80680571D01*
X93871857Y-80180571D02*
X93871857Y-78680571D01*
X94229000Y-78680571D01*
X94443285Y-78752000D01*
X94586142Y-78894857D01*
X94657571Y-79037714D01*
X94729000Y-79323428D01*
X94729000Y-79537714D01*
X94657571Y-79823428D01*
X94586142Y-79966285D01*
X94443285Y-80109142D01*
X94229000Y-80180571D01*
X93871857Y-80180571D01*
X95371857Y-80180571D02*
X95371857Y-79180571D01*
X95371857Y-79466285D02*
X95443285Y-79323428D01*
X95514714Y-79252000D01*
X95657571Y-79180571D01*
X95800428Y-79180571D01*
X96871857Y-80109142D02*
X96729000Y-80180571D01*
X96443285Y-80180571D01*
X96300428Y-80109142D01*
X96229000Y-79966285D01*
X96229000Y-79394857D01*
X96300428Y-79252000D01*
X96443285Y-79180571D01*
X96729000Y-79180571D01*
X96871857Y-79252000D01*
X96943285Y-79394857D01*
X96943285Y-79537714D01*
X96229000Y-79680571D01*
X98229000Y-80180571D02*
X98229000Y-79394857D01*
X98157571Y-79252000D01*
X98014714Y-79180571D01*
X97729000Y-79180571D01*
X97586142Y-79252000D01*
X98229000Y-80109142D02*
X98086142Y-80180571D01*
X97729000Y-80180571D01*
X97586142Y-80109142D01*
X97514714Y-79966285D01*
X97514714Y-79823428D01*
X97586142Y-79680571D01*
X97729000Y-79609142D01*
X98086142Y-79609142D01*
X98229000Y-79537714D01*
X98943285Y-80180571D02*
X98943285Y-79180571D01*
X98943285Y-79323428D02*
X99014714Y-79252000D01*
X99157571Y-79180571D01*
X99371857Y-79180571D01*
X99514714Y-79252000D01*
X99586142Y-79394857D01*
X99586142Y-80180571D01*
X99586142Y-79394857D02*
X99657571Y-79252000D01*
X99800428Y-79180571D01*
X100014714Y-79180571D01*
X100157571Y-79252000D01*
X100229000Y-79394857D01*
X100229000Y-80180571D01*
X101871857Y-78680571D02*
X102729000Y-78680571D01*
X102300428Y-80180571D02*
X102300428Y-78680571D01*
X103800428Y-80109142D02*
X103657571Y-80180571D01*
X103371857Y-80180571D01*
X103229000Y-80109142D01*
X103157571Y-79966285D01*
X103157571Y-79394857D01*
X103229000Y-79252000D01*
X103371857Y-79180571D01*
X103657571Y-79180571D01*
X103800428Y-79252000D01*
X103871857Y-79394857D01*
X103871857Y-79537714D01*
X103157571Y-79680571D01*
X105157571Y-80180571D02*
X105157571Y-79394857D01*
X105086142Y-79252000D01*
X104943285Y-79180571D01*
X104657571Y-79180571D01*
X104514714Y-79252000D01*
X105157571Y-80109142D02*
X105014714Y-80180571D01*
X104657571Y-80180571D01*
X104514714Y-80109142D01*
X104443285Y-79966285D01*
X104443285Y-79823428D01*
X104514714Y-79680571D01*
X104657571Y-79609142D01*
X105014714Y-79609142D01*
X105157571Y-79537714D01*
X105871857Y-80180571D02*
X105871857Y-79180571D01*
X105871857Y-79323428D02*
X105943285Y-79252000D01*
X106086142Y-79180571D01*
X106300428Y-79180571D01*
X106443285Y-79252000D01*
X106514714Y-79394857D01*
X106514714Y-80180571D01*
X106514714Y-79394857D02*
X106586142Y-79252000D01*
X106729000Y-79180571D01*
X106943285Y-79180571D01*
X107086142Y-79252000D01*
X107157571Y-79394857D01*
X107157571Y-80180571D01*
X108943285Y-78823428D02*
X109014714Y-78752000D01*
X109157571Y-78680571D01*
X109514714Y-78680571D01*
X109657571Y-78752000D01*
X109729000Y-78823428D01*
X109800428Y-78966285D01*
X109800428Y-79109142D01*
X109729000Y-79323428D01*
X108871857Y-80180571D01*
X109800428Y-80180571D01*
X110729000Y-78680571D02*
X110871857Y-78680571D01*
X111014714Y-78752000D01*
X111086142Y-78823428D01*
X111157571Y-78966285D01*
X111229000Y-79252000D01*
X111229000Y-79609142D01*
X111157571Y-79894857D01*
X111086142Y-80037714D01*
X111014714Y-80109142D01*
X110871857Y-80180571D01*
X110729000Y-80180571D01*
X110586142Y-80109142D01*
X110514714Y-80037714D01*
X110443285Y-79894857D01*
X110371857Y-79609142D01*
X110371857Y-79252000D01*
X110443285Y-78966285D01*
X110514714Y-78823428D01*
X110586142Y-78752000D01*
X110729000Y-78680571D01*
X111800428Y-78823428D02*
X111871857Y-78752000D01*
X112014714Y-78680571D01*
X112371857Y-78680571D01*
X112514714Y-78752000D01*
X112586142Y-78823428D01*
X112657571Y-78966285D01*
X112657571Y-79109142D01*
X112586142Y-79323428D01*
X111729000Y-80180571D01*
X112657571Y-80180571D01*
X114086142Y-80180571D02*
X113229000Y-80180571D01*
X113657571Y-80180571D02*
X113657571Y-78680571D01*
X113514714Y-78894857D01*
X113371857Y-79037714D01*
X113229000Y-79109142D01*
D10*
X128000000Y-77000000D02*
X77000000Y-77000000D01*
X137000000Y-118000000D02*
X137000000Y-86000000D01*
X77000000Y-127000000D02*
X128000000Y-127000000D01*
X68000000Y-86000000D02*
X68000000Y-118000000D01*
D11*
X81093571Y-101008571D02*
X81093571Y-99508571D01*
X81593571Y-100580000D01*
X82093571Y-99508571D01*
X82093571Y-101008571D01*
X83093571Y-99508571D02*
X83379285Y-99508571D01*
X83522142Y-99580000D01*
X83665000Y-99722857D01*
X83736428Y-100008571D01*
X83736428Y-100508571D01*
X83665000Y-100794285D01*
X83522142Y-100937142D01*
X83379285Y-101008571D01*
X83093571Y-101008571D01*
X82950714Y-100937142D01*
X82807857Y-100794285D01*
X82736428Y-100508571D01*
X82736428Y-100008571D01*
X82807857Y-99722857D01*
X82950714Y-99580000D01*
X83093571Y-99508571D01*
X84307857Y-100937142D02*
X84522142Y-101008571D01*
X84879285Y-101008571D01*
X85022142Y-100937142D01*
X85093571Y-100865714D01*
X85165000Y-100722857D01*
X85165000Y-100580000D01*
X85093571Y-100437142D01*
X85022142Y-100365714D01*
X84879285Y-100294285D01*
X84593571Y-100222857D01*
X84450714Y-100151428D01*
X84379285Y-100080000D01*
X84307857Y-99937142D01*
X84307857Y-99794285D01*
X84379285Y-99651428D01*
X84450714Y-99580000D01*
X84593571Y-99508571D01*
X84950714Y-99508571D01*
X85165000Y-99580000D01*
X85807857Y-101008571D02*
X85807857Y-99508571D01*
X96445571Y-92474171D02*
X95945571Y-91759885D01*
X95588428Y-92474171D02*
X95588428Y-90974171D01*
X96159857Y-90974171D01*
X96302714Y-91045600D01*
X96374142Y-91117028D01*
X96445571Y-91259885D01*
X96445571Y-91474171D01*
X96374142Y-91617028D01*
X96302714Y-91688457D01*
X96159857Y-91759885D01*
X95588428Y-91759885D01*
X97588428Y-91688457D02*
X97088428Y-91688457D01*
X97088428Y-92474171D02*
X97088428Y-90974171D01*
X97802714Y-90974171D01*
X98374142Y-92474171D02*
X98374142Y-90974171D01*
X98874142Y-92045600D01*
X99374142Y-90974171D01*
X99374142Y-92474171D01*
X100159857Y-92474171D02*
X100445571Y-92474171D01*
X100588428Y-92402742D01*
X100659857Y-92331314D01*
X100802714Y-92117028D01*
X100874142Y-91831314D01*
X100874142Y-91259885D01*
X100802714Y-91117028D01*
X100731285Y-91045600D01*
X100588428Y-90974171D01*
X100302714Y-90974171D01*
X100159857Y-91045600D01*
X100088428Y-91117028D01*
X100017000Y-91259885D01*
X100017000Y-91617028D01*
X100088428Y-91759885D01*
X100159857Y-91831314D01*
X100302714Y-91902742D01*
X100588428Y-91902742D01*
X100731285Y-91831314D01*
X100802714Y-91759885D01*
X100874142Y-91617028D01*
X102231285Y-90974171D02*
X101517000Y-90974171D01*
X101445571Y-91688457D01*
X101517000Y-91617028D01*
X101659857Y-91545600D01*
X102017000Y-91545600D01*
X102159857Y-91617028D01*
X102231285Y-91688457D01*
X102302714Y-91831314D01*
X102302714Y-92188457D01*
X102231285Y-92331314D01*
X102159857Y-92402742D01*
X102017000Y-92474171D01*
X101659857Y-92474171D01*
X101517000Y-92402742D01*
X101445571Y-92331314D01*
X102802714Y-90974171D02*
X103159857Y-92474171D01*
X103445571Y-91402742D01*
X103731285Y-92474171D01*
X104088428Y-90974171D01*
X104659857Y-91902742D02*
X105802714Y-91902742D01*
X106588428Y-92474171D02*
X106874142Y-92474171D01*
X107017000Y-92402742D01*
X107088428Y-92331314D01*
X107231285Y-92117028D01*
X107302714Y-91831314D01*
X107302714Y-91259885D01*
X107231285Y-91117028D01*
X107159857Y-91045600D01*
X107017000Y-90974171D01*
X106731285Y-90974171D01*
X106588428Y-91045600D01*
X106517000Y-91117028D01*
X106445571Y-91259885D01*
X106445571Y-91617028D01*
X106517000Y-91759885D01*
X106588428Y-91831314D01*
X106731285Y-91902742D01*
X107017000Y-91902742D01*
X107159857Y-91831314D01*
X107231285Y-91759885D01*
X107302714Y-91617028D01*
X108731285Y-92474171D02*
X107874142Y-92474171D01*
X108302714Y-92474171D02*
X108302714Y-90974171D01*
X108159857Y-91188457D01*
X108017000Y-91331314D01*
X107874142Y-91402742D01*
X110088428Y-90974171D02*
X109374142Y-90974171D01*
X109302714Y-91688457D01*
X109374142Y-91617028D01*
X109517000Y-91545600D01*
X109874142Y-91545600D01*
X110017000Y-91617028D01*
X110088428Y-91688457D01*
X110159857Y-91831314D01*
X110159857Y-92188457D01*
X110088428Y-92331314D01*
X110017000Y-92402742D01*
X109874142Y-92474171D01*
X109517000Y-92474171D01*
X109374142Y-92402742D01*
X109302714Y-92331314D01*
X110731285Y-92402742D02*
X110945571Y-92474171D01*
X111302714Y-92474171D01*
X111445571Y-92402742D01*
X111517000Y-92331314D01*
X111588428Y-92188457D01*
X111588428Y-92045600D01*
X111517000Y-91902742D01*
X111445571Y-91831314D01*
X111302714Y-91759885D01*
X111017000Y-91688457D01*
X110874142Y-91617028D01*
X110802714Y-91545600D01*
X110731285Y-91402742D01*
X110731285Y-91259885D01*
X110802714Y-91117028D01*
X110874142Y-91045600D01*
X111017000Y-90974171D01*
X111374142Y-90974171D01*
X111588428Y-91045600D01*
X112159857Y-91117028D02*
X112231285Y-91045600D01*
X112374142Y-90974171D01*
X112731285Y-90974171D01*
X112874142Y-91045600D01*
X112945571Y-91117028D01*
X113017000Y-91259885D01*
X113017000Y-91402742D01*
X112945571Y-91617028D01*
X112088428Y-92474171D01*
X113017000Y-92474171D01*
X119864285Y-93134571D02*
X119864285Y-91634571D01*
X120864285Y-91634571D02*
X121150000Y-91634571D01*
X121292857Y-91706000D01*
X121435714Y-91848857D01*
X121507142Y-92134571D01*
X121507142Y-92634571D01*
X121435714Y-92920285D01*
X121292857Y-93063142D01*
X121150000Y-93134571D01*
X120864285Y-93134571D01*
X120721428Y-93063142D01*
X120578571Y-92920285D01*
X120507142Y-92634571D01*
X120507142Y-92134571D01*
X120578571Y-91848857D01*
X120721428Y-91706000D01*
X120864285Y-91634571D01*
X87110285Y-95349142D02*
X87324571Y-95420571D01*
X87681714Y-95420571D01*
X87824571Y-95349142D01*
X87896000Y-95277714D01*
X87967428Y-95134857D01*
X87967428Y-94992000D01*
X87896000Y-94849142D01*
X87824571Y-94777714D01*
X87681714Y-94706285D01*
X87396000Y-94634857D01*
X87253142Y-94563428D01*
X87181714Y-94492000D01*
X87110285Y-94349142D01*
X87110285Y-94206285D01*
X87181714Y-94063428D01*
X87253142Y-93992000D01*
X87396000Y-93920571D01*
X87753142Y-93920571D01*
X87967428Y-93992000D01*
X88610285Y-95420571D02*
X88610285Y-93920571D01*
X89181714Y-93920571D01*
X89324571Y-93992000D01*
X89396000Y-94063428D01*
X89467428Y-94206285D01*
X89467428Y-94420571D01*
X89396000Y-94563428D01*
X89324571Y-94634857D01*
X89181714Y-94706285D01*
X88610285Y-94706285D01*
X90110285Y-95420571D02*
X90110285Y-93920571D01*
X87257142Y-84776571D02*
X87757142Y-86276571D01*
X88257142Y-84776571D01*
X88757142Y-86276571D02*
X88757142Y-84776571D01*
X89471428Y-86276571D02*
X89471428Y-84776571D01*
X90328571Y-86276571D01*
X90328571Y-84776571D01*
X124527857Y-109740000D02*
X124385000Y-109668571D01*
X124170714Y-109668571D01*
X123956428Y-109740000D01*
X123813571Y-109882857D01*
X123742142Y-110025714D01*
X123670714Y-110311428D01*
X123670714Y-110525714D01*
X123742142Y-110811428D01*
X123813571Y-110954285D01*
X123956428Y-111097142D01*
X124170714Y-111168571D01*
X124313571Y-111168571D01*
X124527857Y-111097142D01*
X124599285Y-111025714D01*
X124599285Y-110525714D01*
X124313571Y-110525714D01*
X125242142Y-111168571D02*
X125242142Y-109668571D01*
X126099285Y-111168571D01*
X126099285Y-109668571D01*
X126813571Y-111168571D02*
X126813571Y-109668571D01*
X127170714Y-109668571D01*
X127385000Y-109740000D01*
X127527857Y-109882857D01*
X127599285Y-110025714D01*
X127670714Y-110311428D01*
X127670714Y-110525714D01*
X127599285Y-110811428D01*
X127527857Y-110954285D01*
X127385000Y-111097142D01*
X127170714Y-111168571D01*
X126813571Y-111168571D01*
X123742142Y-108628571D02*
X123742142Y-107128571D01*
X124742142Y-107128571D02*
X125027857Y-107128571D01*
X125170714Y-107200000D01*
X125313571Y-107342857D01*
X125385000Y-107628571D01*
X125385000Y-108128571D01*
X125313571Y-108414285D01*
X125170714Y-108557142D01*
X125027857Y-108628571D01*
X124742142Y-108628571D01*
X124599285Y-108557142D01*
X124456428Y-108414285D01*
X124385000Y-108128571D01*
X124385000Y-107628571D01*
X124456428Y-107342857D01*
X124599285Y-107200000D01*
X124742142Y-107128571D01*
X126313571Y-107128571D02*
X126456428Y-107128571D01*
X126599285Y-107200000D01*
X126670714Y-107271428D01*
X126742142Y-107414285D01*
X126813571Y-107700000D01*
X126813571Y-108057142D01*
X126742142Y-108342857D01*
X126670714Y-108485714D01*
X126599285Y-108557142D01*
X126456428Y-108628571D01*
X126313571Y-108628571D01*
X126170714Y-108557142D01*
X126099285Y-108485714D01*
X126027857Y-108342857D01*
X125956428Y-108057142D01*
X125956428Y-107700000D01*
X126027857Y-107414285D01*
X126099285Y-107271428D01*
X126170714Y-107200000D01*
X126313571Y-107128571D01*
X123742142Y-106088571D02*
X123742142Y-104588571D01*
X124742142Y-104588571D02*
X125027857Y-104588571D01*
X125170714Y-104660000D01*
X125313571Y-104802857D01*
X125385000Y-105088571D01*
X125385000Y-105588571D01*
X125313571Y-105874285D01*
X125170714Y-106017142D01*
X125027857Y-106088571D01*
X124742142Y-106088571D01*
X124599285Y-106017142D01*
X124456428Y-105874285D01*
X124385000Y-105588571D01*
X124385000Y-105088571D01*
X124456428Y-104802857D01*
X124599285Y-104660000D01*
X124742142Y-104588571D01*
X126813571Y-106088571D02*
X125956428Y-106088571D01*
X126385000Y-106088571D02*
X126385000Y-104588571D01*
X126242142Y-104802857D01*
X126099285Y-104945714D01*
X125956428Y-105017142D01*
X123742142Y-103548571D02*
X123742142Y-102048571D01*
X124742142Y-102048571D02*
X125027857Y-102048571D01*
X125170714Y-102120000D01*
X125313571Y-102262857D01*
X125385000Y-102548571D01*
X125385000Y-103048571D01*
X125313571Y-103334285D01*
X125170714Y-103477142D01*
X125027857Y-103548571D01*
X124742142Y-103548571D01*
X124599285Y-103477142D01*
X124456428Y-103334285D01*
X124385000Y-103048571D01*
X124385000Y-102548571D01*
X124456428Y-102262857D01*
X124599285Y-102120000D01*
X124742142Y-102048571D01*
X125956428Y-102191428D02*
X126027857Y-102120000D01*
X126170714Y-102048571D01*
X126527857Y-102048571D01*
X126670714Y-102120000D01*
X126742142Y-102191428D01*
X126813571Y-102334285D01*
X126813571Y-102477142D01*
X126742142Y-102691428D01*
X125885000Y-103548571D01*
X126813571Y-103548571D01*
X123742142Y-101008571D02*
X123742142Y-99508571D01*
X124742142Y-99508571D02*
X125027857Y-99508571D01*
X125170714Y-99580000D01*
X125313571Y-99722857D01*
X125385000Y-100008571D01*
X125385000Y-100508571D01*
X125313571Y-100794285D01*
X125170714Y-100937142D01*
X125027857Y-101008571D01*
X124742142Y-101008571D01*
X124599285Y-100937142D01*
X124456428Y-100794285D01*
X124385000Y-100508571D01*
X124385000Y-100008571D01*
X124456428Y-99722857D01*
X124599285Y-99580000D01*
X124742142Y-99508571D01*
X125885000Y-99508571D02*
X126813571Y-99508571D01*
X126313571Y-100080000D01*
X126527857Y-100080000D01*
X126670714Y-100151428D01*
X126742142Y-100222857D01*
X126813571Y-100365714D01*
X126813571Y-100722857D01*
X126742142Y-100865714D01*
X126670714Y-100937142D01*
X126527857Y-101008571D01*
X126099285Y-101008571D01*
X125956428Y-100937142D01*
X125885000Y-100865714D01*
X123742142Y-98468571D02*
X123742142Y-96968571D01*
X124742142Y-96968571D02*
X125027857Y-96968571D01*
X125170714Y-97040000D01*
X125313571Y-97182857D01*
X125385000Y-97468571D01*
X125385000Y-97968571D01*
X125313571Y-98254285D01*
X125170714Y-98397142D01*
X125027857Y-98468571D01*
X124742142Y-98468571D01*
X124599285Y-98397142D01*
X124456428Y-98254285D01*
X124385000Y-97968571D01*
X124385000Y-97468571D01*
X124456428Y-97182857D01*
X124599285Y-97040000D01*
X124742142Y-96968571D01*
X126670714Y-97468571D02*
X126670714Y-98468571D01*
X126313571Y-96897142D02*
X125956428Y-97968571D01*
X126885000Y-97968571D01*
X123742142Y-95928571D02*
X123742142Y-94428571D01*
X124742142Y-94428571D02*
X125027857Y-94428571D01*
X125170714Y-94500000D01*
X125313571Y-94642857D01*
X125385000Y-94928571D01*
X125385000Y-95428571D01*
X125313571Y-95714285D01*
X125170714Y-95857142D01*
X125027857Y-95928571D01*
X124742142Y-95928571D01*
X124599285Y-95857142D01*
X124456428Y-95714285D01*
X124385000Y-95428571D01*
X124385000Y-94928571D01*
X124456428Y-94642857D01*
X124599285Y-94500000D01*
X124742142Y-94428571D01*
X126742142Y-94428571D02*
X126027857Y-94428571D01*
X125956428Y-95142857D01*
X126027857Y-95071428D01*
X126170714Y-95000000D01*
X126527857Y-95000000D01*
X126670714Y-95071428D01*
X126742142Y-95142857D01*
X126813571Y-95285714D01*
X126813571Y-95642857D01*
X126742142Y-95785714D01*
X126670714Y-95857142D01*
X126527857Y-95928571D01*
X126170714Y-95928571D01*
X126027857Y-95857142D01*
X125956428Y-95785714D01*
X82736428Y-109740000D02*
X82593571Y-109668571D01*
X82379285Y-109668571D01*
X82165000Y-109740000D01*
X82022142Y-109882857D01*
X81950714Y-110025714D01*
X81879285Y-110311428D01*
X81879285Y-110525714D01*
X81950714Y-110811428D01*
X82022142Y-110954285D01*
X82165000Y-111097142D01*
X82379285Y-111168571D01*
X82522142Y-111168571D01*
X82736428Y-111097142D01*
X82807857Y-111025714D01*
X82807857Y-110525714D01*
X82522142Y-110525714D01*
X83450714Y-111168571D02*
X83450714Y-109668571D01*
X84307857Y-111168571D01*
X84307857Y-109668571D01*
X85022142Y-111168571D02*
X85022142Y-109668571D01*
X85379285Y-109668571D01*
X85593571Y-109740000D01*
X85736428Y-109882857D01*
X85807857Y-110025714D01*
X85879285Y-110311428D01*
X85879285Y-110525714D01*
X85807857Y-110811428D01*
X85736428Y-110954285D01*
X85593571Y-111097142D01*
X85379285Y-111168571D01*
X85022142Y-111168571D01*
X83307857Y-108628571D02*
X82807857Y-107914285D01*
X82450714Y-108628571D02*
X82450714Y-107128571D01*
X83022142Y-107128571D01*
X83165000Y-107200000D01*
X83236428Y-107271428D01*
X83307857Y-107414285D01*
X83307857Y-107628571D01*
X83236428Y-107771428D01*
X83165000Y-107842857D01*
X83022142Y-107914285D01*
X82450714Y-107914285D01*
X83879285Y-108557142D02*
X84093571Y-108628571D01*
X84450714Y-108628571D01*
X84593571Y-108557142D01*
X84665000Y-108485714D01*
X84736428Y-108342857D01*
X84736428Y-108200000D01*
X84665000Y-108057142D01*
X84593571Y-107985714D01*
X84450714Y-107914285D01*
X84165000Y-107842857D01*
X84022142Y-107771428D01*
X83950714Y-107700000D01*
X83879285Y-107557142D01*
X83879285Y-107414285D01*
X83950714Y-107271428D01*
X84022142Y-107200000D01*
X84165000Y-107128571D01*
X84522142Y-107128571D01*
X84736428Y-107200000D01*
X85165000Y-107128571D02*
X86022142Y-107128571D01*
X85593571Y-108628571D02*
X85593571Y-107128571D01*
X84450714Y-105945714D02*
X84379285Y-106017142D01*
X84165000Y-106088571D01*
X84022142Y-106088571D01*
X83807857Y-106017142D01*
X83665000Y-105874285D01*
X83593571Y-105731428D01*
X83522142Y-105445714D01*
X83522142Y-105231428D01*
X83593571Y-104945714D01*
X83665000Y-104802857D01*
X83807857Y-104660000D01*
X84022142Y-104588571D01*
X84165000Y-104588571D01*
X84379285Y-104660000D01*
X84450714Y-104731428D01*
X85022142Y-106017142D02*
X85236428Y-106088571D01*
X85593571Y-106088571D01*
X85736428Y-106017142D01*
X85807857Y-105945714D01*
X85879285Y-105802857D01*
X85879285Y-105660000D01*
X85807857Y-105517142D01*
X85736428Y-105445714D01*
X85593571Y-105374285D01*
X85307857Y-105302857D01*
X85165000Y-105231428D01*
X85093571Y-105160000D01*
X85022142Y-105017142D01*
X85022142Y-104874285D01*
X85093571Y-104731428D01*
X85165000Y-104660000D01*
X85307857Y-104588571D01*
X85665000Y-104588571D01*
X85879285Y-104660000D01*
X82022142Y-103477142D02*
X82236428Y-103548571D01*
X82593571Y-103548571D01*
X82736428Y-103477142D01*
X82807857Y-103405714D01*
X82879285Y-103262857D01*
X82879285Y-103120000D01*
X82807857Y-102977142D01*
X82736428Y-102905714D01*
X82593571Y-102834285D01*
X82307857Y-102762857D01*
X82165000Y-102691428D01*
X82093571Y-102620000D01*
X82022142Y-102477142D01*
X82022142Y-102334285D01*
X82093571Y-102191428D01*
X82165000Y-102120000D01*
X82307857Y-102048571D01*
X82665000Y-102048571D01*
X82879285Y-102120000D01*
X84379285Y-103405714D02*
X84307857Y-103477142D01*
X84093571Y-103548571D01*
X83950714Y-103548571D01*
X83736428Y-103477142D01*
X83593571Y-103334285D01*
X83522142Y-103191428D01*
X83450714Y-102905714D01*
X83450714Y-102691428D01*
X83522142Y-102405714D01*
X83593571Y-102262857D01*
X83736428Y-102120000D01*
X83950714Y-102048571D01*
X84093571Y-102048571D01*
X84307857Y-102120000D01*
X84379285Y-102191428D01*
X85022142Y-103548571D02*
X85022142Y-102048571D01*
X85879285Y-103548571D02*
X85236428Y-102691428D01*
X85879285Y-102048571D02*
X85022142Y-102905714D01*
X81093571Y-98468571D02*
X81093571Y-96968571D01*
X81593571Y-98040000D01*
X82093571Y-96968571D01*
X82093571Y-98468571D01*
X82807857Y-98468571D02*
X82807857Y-96968571D01*
X83450714Y-98397142D02*
X83665000Y-98468571D01*
X84022142Y-98468571D01*
X84165000Y-98397142D01*
X84236428Y-98325714D01*
X84307857Y-98182857D01*
X84307857Y-98040000D01*
X84236428Y-97897142D01*
X84165000Y-97825714D01*
X84022142Y-97754285D01*
X83736428Y-97682857D01*
X83593571Y-97611428D01*
X83522142Y-97540000D01*
X83450714Y-97397142D01*
X83450714Y-97254285D01*
X83522142Y-97111428D01*
X83593571Y-97040000D01*
X83736428Y-96968571D01*
X84093571Y-96968571D01*
X84307857Y-97040000D01*
X85236428Y-96968571D02*
X85522142Y-96968571D01*
X85665000Y-97040000D01*
X85807857Y-97182857D01*
X85879285Y-97468571D01*
X85879285Y-97968571D01*
X85807857Y-98254285D01*
X85665000Y-98397142D01*
X85522142Y-98468571D01*
X85236428Y-98468571D01*
X85093571Y-98397142D01*
X84950714Y-98254285D01*
X84879285Y-97968571D01*
X84879285Y-97468571D01*
X84950714Y-97182857D01*
X85093571Y-97040000D01*
X85236428Y-96968571D01*
X82812628Y-90613800D02*
X82669771Y-90542371D01*
X82455485Y-90542371D01*
X82241200Y-90613800D01*
X82098342Y-90756657D01*
X82026914Y-90899514D01*
X81955485Y-91185228D01*
X81955485Y-91399514D01*
X82026914Y-91685228D01*
X82098342Y-91828085D01*
X82241200Y-91970942D01*
X82455485Y-92042371D01*
X82598342Y-92042371D01*
X82812628Y-91970942D01*
X82884057Y-91899514D01*
X82884057Y-91399514D01*
X82598342Y-91399514D01*
X83526914Y-92042371D02*
X83526914Y-90542371D01*
X84384057Y-92042371D01*
X84384057Y-90542371D01*
X85098342Y-92042371D02*
X85098342Y-90542371D01*
X85455485Y-90542371D01*
X85669771Y-90613800D01*
X85812628Y-90756657D01*
X85884057Y-90899514D01*
X85955485Y-91185228D01*
X85955485Y-91399514D01*
X85884057Y-91685228D01*
X85812628Y-91828085D01*
X85669771Y-91970942D01*
X85455485Y-92042371D01*
X85098342Y-92042371D01*
X81522142Y-88078571D02*
X82450714Y-88078571D01*
X81950714Y-88650000D01*
X82165000Y-88650000D01*
X82307857Y-88721428D01*
X82379285Y-88792857D01*
X82450714Y-88935714D01*
X82450714Y-89292857D01*
X82379285Y-89435714D01*
X82307857Y-89507142D01*
X82165000Y-89578571D01*
X81736428Y-89578571D01*
X81593571Y-89507142D01*
X81522142Y-89435714D01*
X83093571Y-89435714D02*
X83165000Y-89507142D01*
X83093571Y-89578571D01*
X83022142Y-89507142D01*
X83093571Y-89435714D01*
X83093571Y-89578571D01*
X83665000Y-88078571D02*
X84593571Y-88078571D01*
X84093571Y-88650000D01*
X84307857Y-88650000D01*
X84450714Y-88721428D01*
X84522142Y-88792857D01*
X84593571Y-88935714D01*
X84593571Y-89292857D01*
X84522142Y-89435714D01*
X84450714Y-89507142D01*
X84307857Y-89578571D01*
X83879285Y-89578571D01*
X83736428Y-89507142D01*
X83665000Y-89435714D01*
X85022142Y-88078571D02*
X85522142Y-89578571D01*
X86022142Y-88078571D01*
D12*
%TO.C,C1*%
X91975000Y-89588748D02*
X91975000Y-90111252D01*
X93445000Y-89588748D02*
X93445000Y-90111252D01*
%TO.C,J1*%
X88900000Y-92770000D02*
X87570000Y-92770000D01*
X87570000Y-92770000D02*
X87570000Y-91440000D01*
X87570000Y-90170000D02*
X87570000Y-87570000D01*
X90230000Y-87570000D02*
X87570000Y-87570000D01*
X90230000Y-90170000D02*
X90230000Y-87570000D01*
X90230000Y-90170000D02*
X87570000Y-90170000D01*
%TO.C,J2*%
X88900000Y-111820000D02*
X87570000Y-111820000D01*
X87570000Y-111820000D02*
X87570000Y-110490000D01*
X87570000Y-109220000D02*
X87570000Y-96460000D01*
X90230000Y-96460000D02*
X87570000Y-96460000D01*
X90230000Y-109220000D02*
X90230000Y-96460000D01*
X90230000Y-109220000D02*
X87570000Y-109220000D01*
D13*
%TO.C,J3*%
X113813800Y-111180400D02*
X113813800Y-110650070D01*
X113813800Y-108580400D02*
X113813800Y-109092400D01*
X116413800Y-111180400D02*
X116413800Y-108580400D01*
D12*
%TO.C,J4*%
X120650000Y-111820000D02*
X119320000Y-111820000D01*
X119320000Y-111820000D02*
X119320000Y-110490000D01*
X119320000Y-109220000D02*
X119320000Y-93920000D01*
X121980000Y-93920000D02*
X119320000Y-93920000D01*
X121980000Y-109220000D02*
X121980000Y-93920000D01*
X121980000Y-109220000D02*
X119320000Y-109220000D01*
%TO.C,U1*%
X94770000Y-95120000D02*
X93870000Y-95120000D01*
X94770000Y-94770000D02*
X94770000Y-95120000D01*
X110970000Y-110970000D02*
X110970000Y-110570000D01*
X94770000Y-110970000D02*
X110970000Y-110970000D01*
X94770000Y-110570000D02*
X94770000Y-110970000D01*
X110970000Y-94770000D02*
X110970000Y-95170000D01*
X94770000Y-94770000D02*
X110970000Y-94770000D01*
%TD*%
%TO.C,REF\u002A\u002A*%
D14*
X75666666Y-82252380D02*
X75333333Y-81776190D01*
X75095238Y-82252380D02*
X75095238Y-81252380D01*
X75476190Y-81252380D01*
X75571428Y-81300000D01*
X75619047Y-81347619D01*
X75666666Y-81442857D01*
X75666666Y-81585714D01*
X75619047Y-81680952D01*
X75571428Y-81728571D01*
X75476190Y-81776190D01*
X75095238Y-81776190D01*
X76095238Y-81728571D02*
X76428571Y-81728571D01*
X76571428Y-82252380D02*
X76095238Y-82252380D01*
X76095238Y-81252380D01*
X76571428Y-81252380D01*
X77333333Y-81728571D02*
X77000000Y-81728571D01*
X77000000Y-82252380D02*
X77000000Y-81252380D01*
X77476190Y-81252380D01*
X78000000Y-81252380D02*
X78000000Y-81490476D01*
X77761904Y-81395238D02*
X78000000Y-81490476D01*
X78238095Y-81395238D01*
X77857142Y-81680952D02*
X78000000Y-81490476D01*
X78142857Y-81680952D01*
X78761904Y-81252380D02*
X78761904Y-81490476D01*
X78523809Y-81395238D02*
X78761904Y-81490476D01*
X79000000Y-81395238D01*
X78619047Y-81680952D02*
X78761904Y-81490476D01*
X78904761Y-81680952D01*
X126666666Y-82252380D02*
X126333333Y-81776190D01*
X126095238Y-82252380D02*
X126095238Y-81252380D01*
X126476190Y-81252380D01*
X126571428Y-81300000D01*
X126619047Y-81347619D01*
X126666666Y-81442857D01*
X126666666Y-81585714D01*
X126619047Y-81680952D01*
X126571428Y-81728571D01*
X126476190Y-81776190D01*
X126095238Y-81776190D01*
X127095238Y-81728571D02*
X127428571Y-81728571D01*
X127571428Y-82252380D02*
X127095238Y-82252380D01*
X127095238Y-81252380D01*
X127571428Y-81252380D01*
X128333333Y-81728571D02*
X128000000Y-81728571D01*
X128000000Y-82252380D02*
X128000000Y-81252380D01*
X128476190Y-81252380D01*
X129000000Y-81252380D02*
X129000000Y-81490476D01*
X128761904Y-81395238D02*
X129000000Y-81490476D01*
X129238095Y-81395238D01*
X128857142Y-81680952D02*
X129000000Y-81490476D01*
X129142857Y-81680952D01*
X129761904Y-81252380D02*
X129761904Y-81490476D01*
X129523809Y-81395238D02*
X129761904Y-81490476D01*
X130000000Y-81395238D01*
X129619047Y-81680952D02*
X129761904Y-81490476D01*
X129904761Y-81680952D01*
X126666666Y-114252380D02*
X126333333Y-113776190D01*
X126095238Y-114252380D02*
X126095238Y-113252380D01*
X126476190Y-113252380D01*
X126571428Y-113300000D01*
X126619047Y-113347619D01*
X126666666Y-113442857D01*
X126666666Y-113585714D01*
X126619047Y-113680952D01*
X126571428Y-113728571D01*
X126476190Y-113776190D01*
X126095238Y-113776190D01*
X127095238Y-113728571D02*
X127428571Y-113728571D01*
X127571428Y-114252380D02*
X127095238Y-114252380D01*
X127095238Y-113252380D01*
X127571428Y-113252380D01*
X128333333Y-113728571D02*
X128000000Y-113728571D01*
X128000000Y-114252380D02*
X128000000Y-113252380D01*
X128476190Y-113252380D01*
X129000000Y-113252380D02*
X129000000Y-113490476D01*
X128761904Y-113395238D02*
X129000000Y-113490476D01*
X129238095Y-113395238D01*
X128857142Y-113680952D02*
X129000000Y-113490476D01*
X129142857Y-113680952D01*
X129761904Y-113252380D02*
X129761904Y-113490476D01*
X129523809Y-113395238D02*
X129761904Y-113490476D01*
X130000000Y-113395238D01*
X129619047Y-113680952D02*
X129761904Y-113490476D01*
X129904761Y-113680952D01*
X75666666Y-114252380D02*
X75333333Y-113776190D01*
X75095238Y-114252380D02*
X75095238Y-113252380D01*
X75476190Y-113252380D01*
X75571428Y-113300000D01*
X75619047Y-113347619D01*
X75666666Y-113442857D01*
X75666666Y-113585714D01*
X75619047Y-113680952D01*
X75571428Y-113728571D01*
X75476190Y-113776190D01*
X75095238Y-113776190D01*
X76095238Y-113728571D02*
X76428571Y-113728571D01*
X76571428Y-114252380D02*
X76095238Y-114252380D01*
X76095238Y-113252380D01*
X76571428Y-113252380D01*
X77333333Y-113728571D02*
X77000000Y-113728571D01*
X77000000Y-114252380D02*
X77000000Y-113252380D01*
X77476190Y-113252380D01*
X78000000Y-113252380D02*
X78000000Y-113490476D01*
X77761904Y-113395238D02*
X78000000Y-113490476D01*
X78238095Y-113395238D01*
X77857142Y-113680952D02*
X78000000Y-113490476D01*
X78142857Y-113680952D01*
X78761904Y-113252380D02*
X78761904Y-113490476D01*
X78523809Y-113395238D02*
X78761904Y-113490476D01*
X79000000Y-113395238D01*
X78619047Y-113680952D02*
X78761904Y-113490476D01*
X78904761Y-113680952D01*
%TO.C,C1*%
X94747142Y-90016666D02*
X94794761Y-90064285D01*
X94842380Y-90207142D01*
X94842380Y-90302380D01*
X94794761Y-90445238D01*
X94699523Y-90540476D01*
X94604285Y-90588095D01*
X94413809Y-90635714D01*
X94270952Y-90635714D01*
X94080476Y-90588095D01*
X93985238Y-90540476D01*
X93890000Y-90445238D01*
X93842380Y-90302380D01*
X93842380Y-90207142D01*
X93890000Y-90064285D01*
X93937619Y-90016666D01*
X94842380Y-89064285D02*
X94842380Y-89635714D01*
X94842380Y-89350000D02*
X93842380Y-89350000D01*
X93985238Y-89445238D01*
X94080476Y-89540476D01*
X94128095Y-89635714D01*
%TO.C,J1*%
X91360666Y-91908380D02*
X91360666Y-92622666D01*
X91313047Y-92765523D01*
X91217809Y-92860761D01*
X91074952Y-92908380D01*
X90979714Y-92908380D01*
X92360666Y-92908380D02*
X91789238Y-92908380D01*
X92074952Y-92908380D02*
X92074952Y-91908380D01*
X91979714Y-92051238D01*
X91884476Y-92146476D01*
X91789238Y-92194095D01*
%TO.C,J2*%
X91360666Y-111212380D02*
X91360666Y-111926666D01*
X91313047Y-112069523D01*
X91217809Y-112164761D01*
X91074952Y-112212380D01*
X90979714Y-112212380D01*
X91789238Y-111307619D02*
X91836857Y-111260000D01*
X91932095Y-111212380D01*
X92170190Y-111212380D01*
X92265428Y-111260000D01*
X92313047Y-111307619D01*
X92360666Y-111402857D01*
X92360666Y-111498095D01*
X92313047Y-111640952D01*
X91741619Y-112212380D01*
X92360666Y-112212380D01*
%TO.C,J3*%
D13*
X114690466Y-105374923D02*
X114690466Y-106282066D01*
X114629990Y-106463495D01*
X114509038Y-106584447D01*
X114327609Y-106644923D01*
X114206657Y-106644923D01*
X115174276Y-105374923D02*
X115960466Y-105374923D01*
X115537133Y-105858733D01*
X115718561Y-105858733D01*
X115839514Y-105919209D01*
X115899990Y-105979685D01*
X115960466Y-106100638D01*
X115960466Y-106403019D01*
X115899990Y-106523971D01*
X115839514Y-106584447D01*
X115718561Y-106644923D01*
X115355704Y-106644923D01*
X115234752Y-106584447D01*
X115174276Y-106523971D01*
%TO.C,J4*%
D14*
X123110666Y-111974380D02*
X123110666Y-112688666D01*
X123063047Y-112831523D01*
X122967809Y-112926761D01*
X122824952Y-112974380D01*
X122729714Y-112974380D01*
X124015428Y-112307714D02*
X124015428Y-112974380D01*
X123777333Y-111926761D02*
X123539238Y-112641047D01*
X124158285Y-112641047D01*
%TO.C,U1*%
X102108095Y-93122380D02*
X102108095Y-93931904D01*
X102155714Y-94027142D01*
X102203333Y-94074761D01*
X102298571Y-94122380D01*
X102489047Y-94122380D01*
X102584285Y-94074761D01*
X102631904Y-94027142D01*
X102679523Y-93931904D01*
X102679523Y-93122380D01*
X103679523Y-94122380D02*
X103108095Y-94122380D01*
X103393809Y-94122380D02*
X103393809Y-93122380D01*
X103298571Y-93265238D01*
X103203333Y-93360476D01*
X103108095Y-93408095D01*
%TD*%
M02*
